<?xml version="1.0" encoding="utf-8"?>
<!-- Generator: Adobe Illustrator 27.8.1, SVG Export Plug-In . SVG Version: 6.00 Build 0)  -->
<svg version="1.1" xmlns="http://www.w3.org/2000/svg" xmlns:xlink="http://www.w3.org/1999/xlink" x="0px" y="0px"
	 viewBox="0 0 500 500" style="enable-background:new 0 0 500 500;" xml:space="preserve">
<style type="text/css">
	.st0{display:none;}
	.st1{display:inline;fill:url(#SVGID_1_);}
	.st2{fill:url(#SVGID_00000168098921540232258570000002793572636341559481_);}
	.st3{fill:url(#SVGID_00000056420966461908188120000013104867845712238989_);}
	.st4{fill:url(#SVGID_00000143600294863434129500000002190855206208890786_);}
	.st5{fill:url(#SVGID_00000022545903146975532120000010821516742085498780_);}
	.st6{fill:url(#SVGID_00000047777925335192964400000005562348690921367684_);}
	.st7{fill:url(#SVGID_00000036959148695616040120000000933119862446209677_);}
	.st8{fill:url(#SVGID_00000075840892560319859690000016082777094248295327_);}
	.st9{fill:url(#SVGID_00000093874832762201926130000008924105182009867142_);}
	.st10{fill:#FFFFFF;stroke:#000000;stroke-miterlimit:10;}
	.st11{fill:url(#SVGID_00000039828464921189953130000001722707484790283918_);}
	.st12{fill:url(#SVGID_00000182513277791645149940000015579940422739742643_);}
	.st13{fill:url(#SVGID_00000025442321334956602470000005279451506287744155_);}
	.st14{fill:url(#SVGID_00000172437591032350518620000013577747198048196021_);}
	.st15{fill:url(#SVGID_00000083079599364768669310000000749298855689462194_);}
	.st16{fill:url(#SVGID_00000120548882728262037340000003230558376838923709_);}
	.st17{fill:url(#SVGID_00000017500429613964754920000014246359914989866624_);}
	.st18{fill:url(#SVGID_00000135656713803949253910000011713828782881648013_);}
	.st19{fill:url(#SVGID_00000065792184519133440790000008626564900366805424_);}
	.st20{fill:url(#SVGID_00000033355619045448906870000014807219241478871737_);}
	.st21{fill:url(#SVGID_00000142139087756603802730000003611285520416932743_);}
	.st22{fill:url(#SVGID_00000146486122038438330030000012741519137078078361_);}
	.st23{fill:url(#SVGID_00000153694203202698597010000015357716063209141905_);}
	.st24{fill:url(#SVGID_00000182504612103931135320000014464063658700229510_);}
	.st25{fill:url(#SVGID_00000088830250238516871480000010705315124447813271_);}
	.st26{fill:url(#SVGID_00000036959339091936159890000005463230555143489426_);}
	.st27{fill:url(#SVGID_00000096033136968829181500000000325139005477204157_);}
	.st28{fill:url(#SVGID_00000034778616063132919900000016076693049278649276_);}
	.st29{fill:url(#SVGID_00000177474941242730748520000005991050933094624674_);}
	.st30{fill:url(#SVGID_00000111161996772740000010000017780084093712421026_);}
	.st31{fill:url(#SVGID_00000135685209372446739820000007652279186832470665_);}
	.st32{fill:url(#SVGID_00000021829449808343858910000005733996629952685705_);}
	.st33{fill:url(#SVGID_00000031928276859163535260000009089519686795286718_);}
	.st34{fill:url(#SVGID_00000064323596841855141910000002782968110190873517_);}
	.st35{fill:url(#SVGID_00000179620248201134430940000008153526549902878652_);}
	.st36{fill:url(#SVGID_00000025425023436473829990000013159934419859357115_);}
	.st37{fill:url(#SVGID_00000105413577509084554190000010648365610973397159_);}
	.st38{fill:url(#SVGID_00000140736351666651768350000017875483587474647740_);}
	.st39{fill:url(#SVGID_00000079459303413603685580000016995028582945270661_);}
	.st40{fill:url(#SVGID_00000152230728987812502280000002042622053730452873_);}
	.st41{fill:url(#SVGID_00000157295131036736816550000016257203416657198013_);}
	.st42{fill:url(#SVGID_00000133498967336907259760000010519584218386833554_);}
	.st43{fill:url(#SVGID_00000096048769572922253800000011129908407929386886_);}
	.st44{fill:url(#SVGID_00000041270876226982619120000011557813691633728905_);}
	.st45{fill:url(#SVGID_00000040566076978698816930000006273615051998188929_);}
	.st46{fill:url(#SVGID_00000080188027911108990430000006166658957517985964_);}
	.st47{fill:url(#SVGID_00000083806574354534368130000016424805033029640880_);}
	.st48{fill:url(#SVGID_00000147922970588057276420000017123645343495656078_);}
	.st49{fill:url(#SVGID_00000006682757892694037510000005515137437485060505_);}
	.st50{fill:url(#SVGID_00000023278917522851162330000007939427510371001011_);}
	.st51{fill:url(#SVGID_00000044884762606099379190000017563560398474763676_);}
	.st52{fill:url(#SVGID_00000066498657202591116680000000260057825203547573_);}
	.st53{fill:#AB4319;}
	.st54{font-family:'PerpetuaTitlingMT-Bold';}
	.st55{font-size:29.1473px;}
	.st56{fill:#9BC7EB;}
	.st57{font-family:'Perpetua';}
	.st58{font-size:21.6085px;}
</style>
<g id="BACKGROUND" class="st0">
	<linearGradient id="SVGID_1_" gradientUnits="userSpaceOnUse" x1="0" y1="0" x2="485.585" y2="485.585">
		<stop  offset="0" style="stop-color:#003248"/>
		<stop  offset="0.4192" style="stop-color:#012135"/>
		<stop  offset="1" style="stop-color:#010912"/>
	</linearGradient>
	<rect class="st1" width="500" height="500"/>
</g>
<g id="OBJECTS">
	<g>
		<g>
			<g>
				<g>
					
						<linearGradient id="SVGID_00000172423352586317272420000006680286187482190523_" gradientUnits="userSpaceOnUse" x1="201.3744" y1="229.4636" x2="290.7527" y2="229.4636">
						<stop  offset="0" style="stop-color:#223A79"/>
						<stop  offset="0.2257" style="stop-color:#5BACD9"/>
						<stop  offset="0.531" style="stop-color:#BDE2F7"/>
						<stop  offset="0.7832" style="stop-color:#5BACD9"/>
						<stop  offset="0.9347" style="stop-color:#3662A3"/>
						<stop  offset="1" style="stop-color:#223A79"/>
					</linearGradient>
					<path style="fill:url(#SVGID_00000172423352586317272420000006680286187482190523_);" d="M286.35,290.06
						c-1.12,0-2.23-0.52-2.93-1.51c-1.15-1.62-0.78-3.86,0.84-5.02c15.59-11.12,24.89-29.15,24.89-48.24
						c0-32.66-26.57-59.23-59.23-59.23c-32.66,0-59.23,26.57-59.23,59.23c0,19.09,9.31,37.13,24.89,48.24
						c1.62,1.15,1.99,3.4,0.84,5.02c-1.15,1.62-3.4,1.99-5.02,0.84c-17.47-12.46-27.91-32.69-27.91-54.1
						c0-36.63,29.8-66.43,66.43-66.43c36.63,0,66.43,29.8,66.43,66.43c0,21.41-10.43,41.64-27.91,54.1
						C287.8,289.84,287.07,290.06,286.35,290.06z"/>
				</g>
				
					<linearGradient id="SVGID_00000051376437876430468990000005820776867267180694_" gradientUnits="userSpaceOnUse" x1="204.1255" y1="247.7479" x2="204.1255" y2="176.5279">
					<stop  offset="0" style="stop-color:#223A79"/>
					<stop  offset="0.115" style="stop-color:#3662A3"/>
					<stop  offset="0.3009" style="stop-color:#5BACD9"/>
					<stop  offset="1" style="stop-color:#BDE2F7"/>
				</linearGradient>
				<path style="fill:url(#SVGID_00000051376437876430468990000005820776867267180694_);" d="M211.4,289.39
					c1.62,1.15,3.86,0.78,5.02-0.84c1.15-1.62,0.78-3.86-0.84-5.02c-15.59-11.12-24.89-29.15-24.89-48.24
					c0-8.2,1.68-16.02,4.71-23.13l0,0c0,0,8.32-24.4,29.37-38.33c-24.19,9.94-41.27,33.74-41.27,61.46
					C183.49,256.71,193.93,276.93,211.4,289.39z"/>
				
					<linearGradient id="SVGID_00000003826982485379884220000000998392221880847003_" gradientUnits="userSpaceOnUse" x1="200.2896" y1="289.983" x2="200.2896" y2="235.5281">
					<stop  offset="0" style="stop-color:#223A79"/>
					<stop  offset="0.115" style="stop-color:#3662A3"/>
					<stop  offset="0.3009" style="stop-color:#5BACD9"/>
					<stop  offset="1" style="stop-color:#BDE2F7"/>
				</linearGradient>
				<path style="fill:url(#SVGID_00000003826982485379884220000000998392221880847003_);" d="M216.42,288.55
					c1.15-1.62,0.78-3.86-0.84-5.02c-8.12-5.79-14.51-13.47-18.8-22.18c-5.28-6.65-10.98-16.23-13.23-28.41
					c-0.03,0.78-0.06,1.56-0.06,2.35c0,21.41,10.43,41.64,27.91,54.1C213.02,290.55,215.26,290.17,216.42,288.55z"/>
				
					<linearGradient id="SVGID_00000089566484248669010790000015847831986608841146_" gradientUnits="userSpaceOnUse" x1="295.7444" y1="247.7479" x2="295.7444" y2="176.5279">
					<stop  offset="0" style="stop-color:#223A79"/>
					<stop  offset="0.115" style="stop-color:#3662A3"/>
					<stop  offset="0.3009" style="stop-color:#5BACD9"/>
					<stop  offset="1" style="stop-color:#BDE2F7"/>
				</linearGradient>
				<path style="fill:url(#SVGID_00000089566484248669010790000015847831986608841146_);" d="M288.47,289.39
					c-1.62,1.15-3.86,0.78-5.02-0.84c-1.15-1.62-0.78-3.86,0.84-5.02c15.59-11.12,24.89-29.15,24.89-48.24
					c0-8.2-1.68-16.02-4.71-23.13l0,0c0,0-8.32-24.4-29.37-38.33c24.19,9.94,41.27,33.74,41.27,61.46
					C316.38,256.71,305.94,276.93,288.47,289.39z"/>
				
					<linearGradient id="SVGID_00000113322738792084184250000017417633931598401202_" gradientUnits="userSpaceOnUse" x1="299.5804" y1="289.983" x2="299.5804" y2="235.5281">
					<stop  offset="0" style="stop-color:#223A79"/>
					<stop  offset="0.115" style="stop-color:#3662A3"/>
					<stop  offset="0.3009" style="stop-color:#5BACD9"/>
					<stop  offset="1" style="stop-color:#BDE2F7"/>
				</linearGradient>
				<path style="fill:url(#SVGID_00000113322738792084184250000017417633931598401202_);" d="M283.45,288.55
					c-1.15-1.62-0.78-3.86,0.84-5.02c8.12-5.79,14.51-13.47,18.8-22.18c5.28-6.65,10.98-16.23,13.23-28.41
					c0.03,0.78,0.06,1.56,0.06,2.35c0,21.41-10.43,41.64-27.91,54.1C286.85,290.55,284.61,290.17,283.45,288.55z"/>
			</g>
			<g>
				<g>
					
						<linearGradient id="SVGID_00000031165471650840726530000001209408327204607375_" gradientUnits="userSpaceOnUse" x1="249.9184" y1="256.196" x2="249.9184" y2="284.985">
						<stop  offset="0" style="stop-color:#FFF2BC"/>
						<stop  offset="0.2024" style="stop-color:#FFEC9E"/>
						<stop  offset="0.6869" style="stop-color:#FFA236"/>
						<stop  offset="1" style="stop-color:#AB4319"/>
					</linearGradient>
					<path style="fill:url(#SVGID_00000031165471650840726530000001209408327204607375_);" d="M268.76,290.06
						c-1.99,0-3.6-1.61-3.6-3.6v-16.29c-4.82,1.96-9.99,2.99-15.24,2.99s-10.43-1.02-15.24-2.99v16.29c0,1.99-1.61,3.6-3.6,3.6
						c-1.99,0-3.6-1.61-3.6-3.6v-22.09c0-1.29,0.7-2.49,1.82-3.13c1.13-0.64,2.51-0.62,3.62,0.04c5.12,3.06,11,4.68,16.99,4.68
						c5.99,0,11.87-1.62,16.99-4.68c1.11-0.66,2.49-0.68,3.62-0.04c1.13,0.64,1.82,1.83,1.82,3.13v22.09
						C272.35,288.45,270.74,290.06,268.76,290.06z"/>
				</g>
				<g>
					
						<linearGradient id="SVGID_00000171715519829628744030000010150574388369559938_" gradientUnits="userSpaceOnUse" x1="234.1646" y1="235.3988" x2="263.332" y2="235.3988">
						<stop  offset="0" style="stop-color:#913008"/>
						<stop  offset="0.2954" style="stop-color:#FFA236"/>
						<stop  offset="0.5653" style="stop-color:#FFA236"/>
						<stop  offset="1" style="stop-color:#913008"/>
					</linearGradient>
					<path style="fill:url(#SVGID_00000171715519829628744030000010150574388369559938_);" d="M249.92,273.16
						c-22.25,0-40.36-18.1-40.36-40.36c0-14.12,7.54-27.4,19.67-34.65c1.11-0.66,2.49-0.68,3.62-0.04c1.13,0.64,1.82,1.83,1.82,3.13
						v38.36l15.24,8.8l15.24-8.8v-38.36c0-1.29,0.7-2.49,1.82-3.13c1.13-0.64,2.51-0.62,3.62,0.04
						c12.14,7.26,19.67,20.54,19.67,34.65C290.28,255.06,272.17,273.16,249.92,273.16z M227.48,208.4
						c-6.74,6.22-10.73,15.09-10.73,24.41c0,18.29,14.88,33.16,33.16,33.16s33.16-14.88,33.16-33.16c0-9.31-3.99-18.18-10.73-24.41
						v33.27c0,1.29-0.69,2.47-1.8,3.12l-18.84,10.88c-1.11,0.64-2.48,0.64-3.6,0l-18.84-10.88c-1.11-0.64-1.8-1.83-1.8-3.12V208.4z"
						/>
				</g>
				<g>
					
						<linearGradient id="SVGID_00000072985512832652117280000006730101322291579286_" gradientUnits="userSpaceOnUse" x1="269.662" y1="248.4518" x2="269.662" y2="207.8814">
						<stop  offset="0" style="stop-color:#FFF2BC"/>
						<stop  offset="0.2024" style="stop-color:#FFEC9E"/>
						<stop  offset="0.8418" style="stop-color:#FFA236"/>
						<stop  offset="1" style="stop-color:#AB4319"/>
					</linearGradient>
					<path style="fill:url(#SVGID_00000072985512832652117280000006730101322291579286_);" d="M280.03,206l-0.29,12.37
						c-1.81-3.73-4.31-7.13-7.38-9.97v33.27c0,1.29-0.69,2.47-1.8,3.12l-11.26,6.5c5.04-4.06,5.87-11.69,5.87-11.69v-38.36
						c0-1.29,0.7-2.49,1.82-3.13c1.13-0.64,2.51-0.62,3.62,0.04C274.17,200.28,277.33,202.95,280.03,206z"/>
					<path class="st10" d="M279.01,248.7l-0.03,1.2c0,0-0.28,0.06-0.76,0.16C278.5,249.62,278.76,249.16,279.01,248.7z"/>
				</g>
				
					<linearGradient id="SVGID_00000041978006516468713390000005049734293774986630_" gradientUnits="userSpaceOnUse" x1="277.7171" y1="197.8057" x2="277.7171" y2="262.3434">
					<stop  offset="0" style="stop-color:#FFF2BC"/>
					<stop  offset="0.2024" style="stop-color:#FFEC9E"/>
					<stop  offset="0.8418" style="stop-color:#FFA236"/>
					<stop  offset="1" style="stop-color:#AB4319"/>
				</linearGradient>
				<path style="fill:url(#SVGID_00000041978006516468713390000005049734293774986630_);" d="M270.89,267.27
					c0.34-2.42,1.64-9.57,5.53-14.55l0,0c4.18-5.55,6.66-12.45,6.66-19.91c0-9.31-3.99-18.18-10.73-24.41c0,0-7.19-5.39-7.19,4.81
					v-11.97c0-1.29,0.7-2.49,1.82-3.13c1.13-0.64,2.51-0.62,3.62,0.04c12.14,7.26,19.67,20.54,19.67,34.65
					C290.28,247.38,282.51,260.17,270.89,267.27z"/>
				<g>
					
						<linearGradient id="SVGID_00000124142351693973968450000006454930478306028680_" gradientUnits="userSpaceOnUse" x1="230.1748" y1="248.4518" x2="230.1748" y2="207.8814">
						<stop  offset="0" style="stop-color:#FFF2BC"/>
						<stop  offset="0.2024" style="stop-color:#FFEC9E"/>
						<stop  offset="0.8418" style="stop-color:#FFA236"/>
						<stop  offset="1" style="stop-color:#AB4319"/>
					</linearGradient>
					<path style="fill:url(#SVGID_00000124142351693973968450000006454930478306028680_);" d="M219.81,206l0.29,12.37
						c1.81-3.73,4.31-7.13,7.38-9.97v33.27c0,1.29,0.69,2.47,1.8,3.12l11.26,6.5c-5.04-4.06-5.87-11.69-5.87-11.69v-38.36
						c0-1.29-0.7-2.49-1.82-3.13c-1.13-0.64-2.51-0.62-3.62,0.04C225.67,200.28,222.51,202.95,219.81,206z"/>
					<path class="st10" d="M220.82,248.7l0.03,1.2c0,0,0.28,0.06,0.76,0.16C221.34,249.62,221.08,249.16,220.82,248.7z"/>
				</g>
				
					<linearGradient id="SVGID_00000054963758871712535070000017762050120262353079_" gradientUnits="userSpaceOnUse" x1="222.1198" y1="197.8057" x2="222.1198" y2="262.3434">
					<stop  offset="0" style="stop-color:#FFF2BC"/>
					<stop  offset="0.2024" style="stop-color:#FFEC9E"/>
					<stop  offset="0.8418" style="stop-color:#FFA236"/>
					<stop  offset="1" style="stop-color:#AB4319"/>
				</linearGradient>
				<path style="fill:url(#SVGID_00000054963758871712535070000017762050120262353079_);" d="M228.94,267.27
					c-0.34-2.42-1.64-9.57-5.53-14.55l0,0c-4.18-5.55-6.66-12.45-6.66-19.91c0-9.31,3.99-18.18,10.73-24.41c0,0,7.19-5.39,7.19,4.81
					v-11.97c0-1.29-0.7-2.49-1.82-3.13c-1.13-0.64-2.51-0.62-3.62,0.04c-12.14,7.26-19.67,20.54-19.67,34.65
					C209.56,247.38,217.33,260.17,228.94,267.27z"/>
				
					<linearGradient id="SVGID_00000132780490707490144140000003908718053265661575_" gradientUnits="userSpaceOnUse" x1="229.0482" y1="256.196" x2="229.0482" y2="284.9849">
					<stop  offset="0" style="stop-color:#FFF2BC"/>
					<stop  offset="0.2024" style="stop-color:#FFEC9E"/>
					<stop  offset="0.6869" style="stop-color:#FFA236"/>
					<stop  offset="1" style="stop-color:#AB4319"/>
				</linearGradient>
				<path style="fill:url(#SVGID_00000132780490707490144140000003908718053265661575_);" d="M234.68,271.26
					c0,0,0.4-6.53-11.26-18.55c0,0,4.07,5.57,4.07,17.31L234.68,271.26z"/>
				
					<linearGradient id="SVGID_00000149362407806657781620000012726971670838826423_" gradientUnits="userSpaceOnUse" x1="270.7887" y1="256.196" x2="270.7887" y2="284.9849">
					<stop  offset="0" style="stop-color:#FFF2BC"/>
					<stop  offset="0.2024" style="stop-color:#FFEC9E"/>
					<stop  offset="0.6869" style="stop-color:#FFA236"/>
					<stop  offset="1" style="stop-color:#AB4319"/>
				</linearGradient>
				<path style="fill:url(#SVGID_00000149362407806657781620000012726971670838826423_);" d="M265.16,271.26
					c0,0-0.4-6.53,11.26-18.55c0,0-4.07,5.57-4.07,17.31L265.16,271.26z"/>
				<path class="st10" d="M224.79,226.8"/>
			</g>
			<g>
				<g>
					
						<linearGradient id="SVGID_00000022518999550713798990000004143719853266351249_" gradientUnits="userSpaceOnUse" x1="201.2673" y1="157.8089" x2="171.5619" y2="188.6731">
						<stop  offset="0" style="stop-color:#223A79"/>
						<stop  offset="0.115" style="stop-color:#3662A3"/>
						<stop  offset="0.3009" style="stop-color:#5BACD9"/>
						<stop  offset="1" style="stop-color:#BDE2F7"/>
					</linearGradient>
					<path style="fill:url(#SVGID_00000022518999550713798990000004143719853266351249_);" d="M190.22,173.83
						c4.02-3.96,8.42-7.52,13.13-10.6l-4.28-7.29c-0.1-0.18-0.26-0.24-0.37-0.27c-0.04-0.01-0.09-0.02-0.13-0.02
						c-0.1,0-0.19,0.03-0.27,0.08c0,0,0,0,0,0c-5.28,3.42-10.26,7.42-14.8,11.86l-4.67-5.49c4.79-4.64,10.03-8.82,15.56-12.41l0,0
						c1.78-1.16,3.91-1.52,5.98-1.03c2.05,0.49,3.85,1.81,4.91,3.63l6.05,10.31c1,1.71,0.44,3.9-1.26,4.91
						c-5.58,3.33-10.75,7.37-15.34,11.98"/>
					
						<linearGradient id="SVGID_00000060738041892366125140000010266418387493866131_" gradientUnits="userSpaceOnUse" x1="199.7761" y1="166.0825" x2="191.4544" y2="153.6525">
						<stop  offset="0" style="stop-color:#223A79"/>
						<stop  offset="0.115" style="stop-color:#3662A3"/>
						<stop  offset="0.3009" style="stop-color:#5BACD9"/>
						<stop  offset="1" style="stop-color:#BDE2F7"/>
					</linearGradient>
					<path style="fill:url(#SVGID_00000060738041892366125140000010266418387493866131_);" d="M211.33,162.6l-6.05-10.31
						c-1.07-1.82-2.86-3.14-4.91-3.63c-2.07-0.49-4.19-0.12-5.98,1.03c-1.86,1.2-3.66,2.5-5.45,3.83c5.15-2,9.05,1.35,9.94,2.21
						c0.05,0.03,0.1,0.08,0.14,0.14c0.03,0.03,0.05,0.05,0.05,0.05l4.28,7.29c-4.71,3.09-9.12,6.65-13.13,10.6l4.51,5.66
						c4.6-4.61,9.76-8.65,15.34-11.98C211.76,166.5,212.33,164.3,211.33,162.6z"/>
				</g>
				<g>
					
						<linearGradient id="SVGID_00000182528592649978170580000001973895554415382915_" gradientUnits="userSpaceOnUse" x1="155.2774" y1="211.4708" x2="157.0682" y2="256.6609">
						<stop  offset="0" style="stop-color:#223A79"/>
						<stop  offset="0.115" style="stop-color:#3662A3"/>
						<stop  offset="0.3009" style="stop-color:#5BACD9"/>
						<stop  offset="1" style="stop-color:#BDE2F7"/>
					</linearGradient>
					<path style="fill:url(#SVGID_00000182528592649978170580000001973895554415382915_);" d="M154.01,207.08
						c-1.81,1.06-3.13,2.85-3.61,4.89c-1.58,6.69-2.49,13.57-2.69,20.48h7.2c0.21-6.36,1.04-12.68,2.5-18.83
						c0.03-0.15,0.12-0.26,0.25-0.34c0.07-0.04,0.17-0.08,0.29-0.08c0.05,0,0.1,0.01,0.16,0.02l3.77,1.07
						c0.55-2.24,1.17-4.85,1.65-7.01l-3.46-0.98C158.03,205.73,155.83,206.01,154.01,207.08z"/>
					
						<linearGradient id="SVGID_00000080166099901126838460000012894112940036669342_" gradientUnits="userSpaceOnUse" x1="169.4774" y1="216.9091" x2="149.8844" y2="211.8529">
						<stop  offset="0" style="stop-color:#223A79"/>
						<stop  offset="0.115" style="stop-color:#3662A3"/>
						<stop  offset="0.3009" style="stop-color:#5BACD9"/>
						<stop  offset="1" style="stop-color:#BDE2F7"/>
					</linearGradient>
					<path style="fill:url(#SVGID_00000080166099901126838460000012894112940036669342_);" d="M166,220.01l5.19,4.45l1.61-1.41
						c0.45-3,1.06-5.98,1.85-8.91c0.51-1.9-0.6-3.86-2.49-4.4l-12.1-3.43c-2.03-0.58-4.24-0.29-6.06,0.78
						c-1.81,1.06-3.13,2.85-3.61,4.89c-0.61,2.58-1.11,5.18-1.52,7.8c2.72-8.01,9.22-6.54,9.22-6.54l8.76,2.48
						C166.54,217.14,166.25,218.57,166,220.01z"/>
				</g>
				
					<linearGradient id="SVGID_00000147203455618845538030000003111067238054539440_" gradientUnits="userSpaceOnUse" x1="238.1058" y1="142.221" x2="241.3713" y2="155.915">
					<stop  offset="0" style="stop-color:#223A79"/>
					<stop  offset="0.115" style="stop-color:#3662A3"/>
					<stop  offset="0.3009" style="stop-color:#5BACD9"/>
					<stop  offset="1" style="stop-color:#BDE2F7"/>
				</linearGradient>
				<path style="fill:url(#SVGID_00000147203455618845538030000003111067238054539440_);" d="M249.92,149.36
					c-5.45,0-10.93,0.53-16.33,1.59l-1.91-8.09c-0.05-0.2,0.02-0.35,0.08-0.44c0.06-0.09,0.17-0.21,0.36-0.24
					c5.84-1.1,11.85-1.65,17.86-1.65l0.01-7.19c-6.46,0-12.92,0.59-19.2,1.77c-2.07,0.39-3.91,1.63-5.06,3.39
					c-1.15,1.77-1.53,3.96-1.05,6.02l2.72,11.53c0.22,0.93,0.8,1.74,1.61,2.24c0.81,0.5,1.79,0.66,2.72,0.44
					c6.01-1.44,12.15-2.15,18.28-2.14L249.92,149.36z"/>
				
					<linearGradient id="SVGID_00000135660941296624194620000007751605642090088585_" gradientUnits="userSpaceOnUse" x1="180.9033" y1="274.2812" x2="155.5167" y2="290.8193">
					<stop  offset="0" style="stop-color:#223A79"/>
					<stop  offset="0.115" style="stop-color:#3662A3"/>
					<stop  offset="0.3009" style="stop-color:#5BACD9"/>
					<stop  offset="1" style="stop-color:#BDE2F7"/>
				</linearGradient>
				<path style="fill:url(#SVGID_00000135660941296624194620000007751605642090088585_);" d="M168.24,283.06l2.72-1.45l0,0
					l5.99-3.19c0.32,0.53,0.66,1.04,0.99,1.56l2-0.47c0.06,0,0.36-0.42,0.76-1.01l-4.34-7.92l-11.51,6.14
					c-1.86,0.99-3.26,2.73-3.83,4.76c-0.57,2.05-0.3,4.18,0.78,6.01c1.03,1.75,2.13,3.46,3.27,5.16
					C161.02,284.2,168.24,283.06,168.24,283.06z"/>
				<g>
					
						<linearGradient id="SVGID_00000018195328893546240950000011557708861397779903_" gradientUnits="userSpaceOnUse" x1="234.7865" y1="220.478" x2="264.6856" y2="220.478">
						<stop  offset="0" style="stop-color:#3662A3"/>
						<stop  offset="0.1571" style="stop-color:#5BACD9"/>
						<stop  offset="0.5575" style="stop-color:#BDE2F7"/>
						<stop  offset="0.865" style="stop-color:#5BACD9"/>
						<stop  offset="1" style="stop-color:#3662A3"/>
					</linearGradient>
					<path style="fill:url(#SVGID_00000018195328893546240950000011557708861397779903_);" d="M311.48,291.59
						c-0.84,0-1.68-0.29-2.36-0.88c-1.5-1.3-1.66-3.57-0.36-5.07c12.33-14.18,19.12-32.34,19.12-51.11
						c0-42.99-34.98-77.97-77.97-77.97c-42.99,0-78.2,34.98-77.97,77.97c0.09,16.87,6.8,36.81,19.12,51.11
						c1.3,1.51,1.14,3.77-0.36,5.07c-1.5,1.3-3.77,1.15-5.07-0.36c-13.47-15.49-20.88-35.32-20.88-55.83
						c0-46.96,38.21-85.16,85.16-85.16c46.96,0,85.16,38.21,85.16,85.16c0,20.51-7.42,40.34-20.88,55.83
						C313.49,291.18,312.49,291.59,311.48,291.59z"/>
				</g>
				<g>
					<g>
						
							<linearGradient id="SVGID_00000107555620548999152720000010454585282264769926_" gradientUnits="userSpaceOnUse" x1="194.2097" y1="210.7125" x2="236.8131" y2="163.5033">
							<stop  offset="0" style="stop-color:#223A79"/>
							<stop  offset="0.115" style="stop-color:#3662A3"/>
							<stop  offset="0.3009" style="stop-color:#5BACD9"/>
							<stop  offset="0.7854" style="stop-color:#BDE2F7"/>
							<stop  offset="1" style="stop-color:#3662A3"/>
						</linearGradient>
						<path style="fill:url(#SVGID_00000107555620548999152720000010454585282264769926_);" d="M242.86,156.89l0.02-0.02
							c0,0-0.07,0.01-0.19,0.03C242.74,156.9,242.8,156.89,242.86,156.89z"/>
						
							<linearGradient id="SVGID_00000121970557720431667920000002093177590942996653_" gradientUnits="userSpaceOnUse" x1="183.5866" y1="201.1107" x2="226.1834" y2="153.9088">
							<stop  offset="0" style="stop-color:#223A79"/>
							<stop  offset="0.115" style="stop-color:#3662A3"/>
							<stop  offset="0.3009" style="stop-color:#5BACD9"/>
							<stop  offset="0.7854" style="stop-color:#BDE2F7"/>
							<stop  offset="1" style="stop-color:#3662A3"/>
						</linearGradient>
						<path style="fill:url(#SVGID_00000121970557720431667920000002093177590942996653_);" d="M178.98,187.46
							c1.55,0.84,4.71,1.77,9.27-0.73c0.01-0.01,0.03-0.02,0.05-0.03c12.68-16.25,31.68-27.38,53.24-29.69
							c-2.48,0.13-7.87-0.26-11.25-5.34C209,156.71,190.77,169.76,178.98,187.46z"/>
					</g>
					
						<linearGradient id="SVGID_00000048495794384133357550000003122261893576304829_" gradientUnits="userSpaceOnUse" x1="176.5269" y1="248.6911" x2="176.5269" y2="193.9024">
						<stop  offset="0" style="stop-color:#223A79"/>
						<stop  offset="0.115" style="stop-color:#3662A3"/>
						<stop  offset="0.3009" style="stop-color:#5BACD9"/>
						<stop  offset="0.7854" style="stop-color:#BDE2F7"/>
						<stop  offset="1" style="stop-color:#3662A3"/>
					</linearGradient>
					<path style="fill:url(#SVGID_00000048495794384133357550000003122261893576304829_);" d="M178.8,187.75
						c-8.87,13.43-14.04,29.51-14.04,46.77c0,5.28,0.5,10.52,1.46,15.65c7.46-3.26,5.82-11.91,5.82-11.91l0.04-0.01
						c-0.08-1.26-0.13-2.51-0.14-3.73c-0.1-18.01,6.04-34.6,16.35-47.82c-0.02,0.01-0.03,0.01-0.05,0.02
						C184.69,189.06,181.29,188.69,178.8,187.75z"/>
					
						<linearGradient id="SVGID_00000154419003128408264390000014255808744660327321_" gradientUnits="userSpaceOnUse" x1="192.7452" y1="286.6503" x2="170.1035" y2="251.5367">
						<stop  offset="0" style="stop-color:#223A79"/>
						<stop  offset="0.115" style="stop-color:#3662A3"/>
						<stop  offset="0.3009" style="stop-color:#5BACD9"/>
						<stop  offset="0.7854" style="stop-color:#BDE2F7"/>
						<stop  offset="1" style="stop-color:#3662A3"/>
					</linearGradient>
					<path style="fill:url(#SVGID_00000154419003128408264390000014255808744660327321_);" d="M172.08,238.28l-0.05-0.01
						c-0.13,6.7-3.25,10.59-5.68,12.61c2.85,14.52,9.44,28.16,19.28,39.48c1.3,1.5,3.58,1.66,5.07,0.36c1.5-1.3,1.65-3.57,0.36-5.07
						C179.64,272.38,173.06,254.29,172.08,238.28z"/>
				</g>
				<g>
					
						<linearGradient id="SVGID_00000126323432782086563870000001199643605487275650_" gradientUnits="userSpaceOnUse" x1="175.3695" y1="290.4287" x2="185.166" y2="281.8962">
						<stop  offset="0" style="stop-color:#223A79"/>
						<stop  offset="0.115" style="stop-color:#3662A3"/>
						<stop  offset="0.3009" style="stop-color:#5BACD9"/>
						<stop  offset="1" style="stop-color:#BDE2F7"/>
					</linearGradient>
					<path style="fill:url(#SVGID_00000126323432782086563870000001199643605487275650_);" d="M191.07,285.64
						c-2.4-2.76-4.59-5.72-6.59-8.8c0.02,0.04,0.02,0.07,0.04,0.11c3.49,8.67-1.06,10.8-1.06,10.8l-7.21,7.05
						c-0.14,0.1-0.29,0.11-0.39,0.1c-0.15-0.01-0.27-0.08-0.36-0.19c-2.74-3.44-5.26-7.1-7.49-10.89c-0.07-0.12-0.09-0.26-0.05-0.41
						c0.03-0.11,0.1-0.26,0.28-0.35c0,0-7.22,1.14-3.15,9.57c1.51,2.24,3.11,4.44,4.79,6.55c1.32,1.66,3.21,2.68,5.33,2.88
						c0.23,0.02,0.47,0.03,0.7,0.03c1.86,0,3.69-0.68,5.11-1.9c0.05-0.05,0.1-0.09,0.16-0.14l9.7-9.48
						C192.23,289.24,192.31,287.08,191.07,285.64z"/>
				</g>
				
					<linearGradient id="SVGID_00000040560048575521357440000001300335955129330823_" gradientUnits="userSpaceOnUse" x1="162.8404" y1="284.9731" x2="181.0641" y2="300.7739">
					<stop  offset="0" style="stop-color:#223A79"/>
					<stop  offset="0.115" style="stop-color:#3662A3"/>
					<stop  offset="0.3009" style="stop-color:#5BACD9"/>
					<stop  offset="1" style="stop-color:#BDE2F7"/>
				</linearGradient>
				<path style="fill:url(#SVGID_00000040560048575521357440000001300335955129330823_);" d="M167.96,283.42
					c0.03-0.11,0.1-0.26,0.28-0.35c0,0-7.22,1.14-3.15,9.57c1.51,2.24,3.11,4.44,4.79,6.55c1.32,1.66,3.21,2.68,5.33,2.88
					c0.23,0.02,0.47,0.03,0.7,0.03c1.86,0,3.69-0.68,5.11-1.9c0.05-0.05,0.1-0.09,0.16-0.14l4.05-3.96
					c-4.81,3.42-9.72-1.38-9.72-1.38c-2.74-3.44-5.26-7.1-7.49-10.89C167.93,283.7,167.92,283.56,167.96,283.42z"/>
				<g>
					
						<linearGradient id="SVGID_00000144331796880744354470000002712281772760270001_" gradientUnits="userSpaceOnUse" x1="153.1156" y1="245.6523" x2="169.6538" y2="238.5946">
						<stop  offset="0" style="stop-color:#223A79"/>
						<stop  offset="0.115" style="stop-color:#3662A3"/>
						<stop  offset="0.3009" style="stop-color:#5BACD9"/>
						<stop  offset="1" style="stop-color:#BDE2F7"/>
					</linearGradient>
					<path style="fill:url(#SVGID_00000144331796880744354470000002712281772760270001_);" d="M167.27,255.07l-9.42,1.8
						c-0.48,0.09-0.96,0.14-1.44,0.14c-1.61,0-3.2-0.5-4.52-1.44c-1.74-1.24-2.86-3.08-3.16-5.18c-0.71-4.88-1.07-9.86-1.07-14.8
						c0-1.04,0.02-2.08,0.05-3.12h7.2c-0.03,1.04-0.05,2.08-0.05,3.12c0,4.6,0.33,9.23,0.99,13.77c0.02,0.15,0.1,0.26,0.22,0.35
						c0.09,0.07,0.24,0.13,0.44,0.1l9.33-1.78c0,0,5.26-0.5,6.2-9.75C174.11,253.91,167.27,255.07,167.27,255.07z"/>
					
						<linearGradient id="SVGID_00000135686501714083994050000001628930699022623370_" gradientUnits="userSpaceOnUse" x1="154.5653" y1="211.499" x2="156.3561" y2="256.6894">
						<stop  offset="0" style="stop-color:#223A79"/>
						<stop  offset="0.115" style="stop-color:#3662A3"/>
						<stop  offset="0.3009" style="stop-color:#5BACD9"/>
						<stop  offset="1" style="stop-color:#BDE2F7"/>
					</linearGradient>
					<path style="fill:url(#SVGID_00000135686501714083994050000001628930699022623370_);" d="M156.06,249.7
						c-0.12-0.09-0.2-0.21-0.22-0.35c-0.66-4.54-0.99-9.18-0.99-13.77c0-1.04,0.02-2.08,0.05-3.12h-7.2
						c-0.03,1.04-0.05,2.08-0.05,3.12c0,4.94,0.36,9.92,1.07,14.8c0.31,2.1,1.43,3.94,3.16,5.18c1.32,0.94,2.91,1.44,4.52,1.44
						c0.48,0,0.97-0.05,1.44-0.14l6.41-1.22C156.92,256,156.06,249.7,156.06,249.7z"/>
				</g>
				
					<linearGradient id="SVGID_00000158731861353183063180000015195532528352912051_" gradientUnits="userSpaceOnUse" x1="176.8892" y1="177.5288" x2="184.5789" y2="184.3758">
					<stop  offset="0" style="stop-color:#223A79"/>
					<stop  offset="0.115" style="stop-color:#3662A3"/>
					<stop  offset="0.3009" style="stop-color:#5BACD9"/>
					<stop  offset="1" style="stop-color:#BDE2F7"/>
				</linearGradient>
				<path style="fill:url(#SVGID_00000158731861353183063180000015195532528352912051_);" d="M179.96,185.99l-7.33-4.76
					c-0.17-0.11-0.23-0.27-0.25-0.38c-0.03-0.15,0-0.28,0.08-0.4c3.26-4.57,6.98-8.89,11.04-12.86l-4.67-5.49
					c-4.51,4.36-8.62,9.12-12.22,14.17c-1.23,1.73-1.69,3.83-1.3,5.92c0.39,2.07,1.64,3.92,3.4,5.07l7.67,4.98
					c0,0,5.15,3.05,11.88-5.52C182.73,187.78,179.96,185.99,179.96,185.99z"/>
				
					<linearGradient id="SVGID_00000055698592273170168950000009794308615850049206_" gradientUnits="userSpaceOnUse" x1="196.3905" y1="153.1152" x2="166.6852" y2="183.9793">
					<stop  offset="0" style="stop-color:#223A79"/>
					<stop  offset="0.115" style="stop-color:#3662A3"/>
					<stop  offset="0.3009" style="stop-color:#5BACD9"/>
					<stop  offset="1" style="stop-color:#BDE2F7"/>
				</linearGradient>
				<path style="fill:url(#SVGID_00000055698592273170168950000009794308615850049206_);" d="M172.45,180.45
					c3.26-4.57,6.98-8.89,11.04-12.86l-4.67-5.49c-4.51,4.36-8.62,9.12-12.22,14.17c-1.23,1.73-1.69,3.83-1.3,5.92
					c0.39,2.07,1.64,3.92,3.4,5.07l2.35,1.53C168.91,183.6,172.45,180.45,172.45,180.45z"/>
				
					<linearGradient id="SVGID_00000106149502774751688620000010617384769613263260_" gradientUnits="userSpaceOnUse" x1="225.972" y1="141.3466" x2="274.9573" y2="141.3466">
					<stop  offset="0" style="stop-color:#BDE2F7"/>
					<stop  offset="0.5" style="stop-color:#5BACD9"/>
					<stop  offset="1" style="stop-color:#BDE2F7"/>
				</linearGradient>
				<path style="fill:url(#SVGID_00000106149502774751688620000010617384769613263260_);" d="M225.73,138.5
					c-1.15,1.77-1.53,3.96-1.05,6.02l1.14,4.85l0,0c-0.32-6.65,6.29-7.19,6.29-7.19c0.06-0.09-0.19,0.04,0,0
					c5.84-1.1,11.85-1.65,17.86-1.65l0.01-7.19c-6.46,0-12.92,0.59-19.2,1.77C228.72,135.49,226.88,136.73,225.73,138.5z"/>
				
					<linearGradient id="SVGID_00000032643187835319992380000001888646725037051315_" gradientUnits="userSpaceOnUse" x1="232.0788" y1="143.6582" x2="235.3442" y2="157.3522">
					<stop  offset="0" style="stop-color:#223A79"/>
					<stop  offset="0.115" style="stop-color:#3662A3"/>
					<stop  offset="0.3009" style="stop-color:#5BACD9"/>
					<stop  offset="1" style="stop-color:#BDE2F7"/>
				</linearGradient>
				<path style="fill:url(#SVGID_00000032643187835319992380000001888646725037051315_);" d="M242.88,156.87
					c-8.77,0.3-9.29-5.92-9.29-5.92l-0.37-1.59l-6.82,2.42C226.4,151.78,226.83,159.65,242.88,156.87z"/>
				<g>
					
						<linearGradient id="SVGID_00000124853902102454840970000015536572467943305659_" gradientUnits="userSpaceOnUse" x1="250.3002" y1="157.8089" x2="220.5947" y2="188.6731" gradientTransform="matrix(-1 0 0 1 549.0328 0)">
						<stop  offset="0" style="stop-color:#223A79"/>
						<stop  offset="0.115" style="stop-color:#3662A3"/>
						<stop  offset="0.3009" style="stop-color:#5BACD9"/>
						<stop  offset="1" style="stop-color:#BDE2F7"/>
					</linearGradient>
					<path style="fill:url(#SVGID_00000124853902102454840970000015536572467943305659_);" d="M305.28,179.49
						c-4.6-4.61-9.76-8.65-15.34-11.98c-1.7-1.01-2.26-3.21-1.26-4.91l6.05-10.31c1.07-1.82,2.86-3.14,4.91-3.63
						c2.07-0.49,4.19-0.12,5.98,1.03l0,0c5.54,3.59,10.77,7.77,15.56,12.41l-4.67,5.49c-4.55-4.44-9.53-8.44-14.8-11.86c0,0,0,0,0,0
						c-0.08-0.06-0.18-0.08-0.27-0.08c-0.04,0-0.09,0.01-0.13,0.02c-0.11,0.03-0.26,0.09-0.37,0.27l-4.28,7.29
						c4.71,3.09,9.12,6.65,13.13,10.6"/>
					
						<linearGradient id="SVGID_00000124146393779849939390000007101046802028136603_" gradientUnits="userSpaceOnUse" x1="248.8089" y1="166.0824" x2="240.4872" y2="153.6525" gradientTransform="matrix(-1 0 0 1 549.0328 0)">
						<stop  offset="0" style="stop-color:#223A79"/>
						<stop  offset="0.115" style="stop-color:#3662A3"/>
						<stop  offset="0.3009" style="stop-color:#5BACD9"/>
						<stop  offset="1" style="stop-color:#BDE2F7"/>
					</linearGradient>
					<path style="fill:url(#SVGID_00000124146393779849939390000007101046802028136603_);" d="M288.67,162.6l6.05-10.31
						c1.07-1.82,2.86-3.14,4.91-3.63c2.07-0.49,4.19-0.12,5.98,1.03c1.86,1.2,3.66,2.5,5.45,3.83c-5.15-2-9.05,1.35-9.94,2.21
						c-0.05,0.03-0.1,0.08-0.14,0.14c-0.03,0.03-0.05,0.05-0.05,0.05l-4.28,7.29c4.71,3.09,9.12,6.65,13.13,10.6l-4.51,5.66
						c-4.6-4.61-9.76-8.65-15.34-11.98C288.24,166.5,287.67,164.3,288.67,162.6z"/>
				</g>
				<g>
					
						<linearGradient id="SVGID_00000081643399025446702210000008423521688317829531_" gradientUnits="userSpaceOnUse" x1="204.3103" y1="211.4708" x2="206.101" y2="256.6609" gradientTransform="matrix(-1 0 0 1 549.0328 0)">
						<stop  offset="0" style="stop-color:#223A79"/>
						<stop  offset="0.115" style="stop-color:#3662A3"/>
						<stop  offset="0.3009" style="stop-color:#5BACD9"/>
						<stop  offset="1" style="stop-color:#BDE2F7"/>
					</linearGradient>
					<path style="fill:url(#SVGID_00000081643399025446702210000008423521688317829531_);" d="M345.99,207.08
						c1.81,1.06,3.13,2.85,3.61,4.89c1.58,6.69,2.49,13.57,2.7,20.48h-7.2c-0.21-6.36-1.04-12.68-2.5-18.83
						c-0.03-0.15-0.12-0.26-0.25-0.34c-0.07-0.04-0.17-0.08-0.29-0.08c-0.05,0-0.1,0.01-0.16,0.02l-3.77,1.07
						c-0.55-2.24-1.17-4.85-1.65-7.01l3.46-0.98C341.97,205.73,344.17,206.01,345.99,207.08z"/>
					
						<linearGradient id="SVGID_00000147180458231825195130000000747856227788182699_" gradientUnits="userSpaceOnUse" x1="218.5102" y1="216.9091" x2="198.9173" y2="211.8529" gradientTransform="matrix(-1 0 0 1 549.0328 0)">
						<stop  offset="0" style="stop-color:#223A79"/>
						<stop  offset="0.115" style="stop-color:#3662A3"/>
						<stop  offset="0.3009" style="stop-color:#5BACD9"/>
						<stop  offset="1" style="stop-color:#BDE2F7"/>
					</linearGradient>
					<path style="fill:url(#SVGID_00000147180458231825195130000000747856227788182699_);" d="M334,220.01l-5.19,4.45l-1.61-1.41
						c-0.45-3-1.06-5.98-1.85-8.91c-0.51-1.9,0.6-3.86,2.49-4.4l12.1-3.43c2.03-0.58,4.24-0.29,6.06,0.78
						c1.81,1.06,3.13,2.85,3.61,4.89c0.61,2.58,1.11,5.18,1.52,7.8c-2.72-8.01-9.22-6.54-9.22-6.54l-8.76,2.48
						C333.46,217.14,333.75,218.57,334,220.01z"/>
				</g>
				
					<linearGradient id="SVGID_00000029731781090565088670000000366117660272148115_" gradientUnits="userSpaceOnUse" x1="287.1386" y1="142.221" x2="290.4041" y2="155.915" gradientTransform="matrix(-1 0 0 1 549.0328 0)">
					<stop  offset="0" style="stop-color:#223A79"/>
					<stop  offset="0.115" style="stop-color:#3662A3"/>
					<stop  offset="0.3009" style="stop-color:#5BACD9"/>
					<stop  offset="1" style="stop-color:#BDE2F7"/>
				</linearGradient>
				<path style="fill:url(#SVGID_00000029731781090565088670000000366117660272148115_);" d="M249.99,156.56
					c6.13-0.01,12.26,0.71,18.28,2.14c0.93,0.22,1.91,0.07,2.72-0.44c0.81-0.5,1.39-1.31,1.61-2.24l2.72-11.53
					c0.48-2.05,0.1-4.25-1.05-6.02c-1.15-1.77-2.99-3-5.06-3.39c-6.28-1.19-12.74-1.78-19.2-1.77l0.01,7.19
					c6.01,0,12.02,0.55,17.86,1.65c0.19,0.04,0.3,0.15,0.36,0.24c0.06,0.09,0.12,0.25,0.08,0.44l-1.91,8.09
					c-5.4-1.05-10.87-1.59-16.33-1.59L249.99,156.56z"/>
				
					<linearGradient id="SVGID_00000161591245358529590460000001675685527421989294_" gradientUnits="userSpaceOnUse" x1="229.9361" y1="274.2812" x2="204.5495" y2="290.8193" gradientTransform="matrix(-1 0 0 1 549.0328 0)">
					<stop  offset="0" style="stop-color:#223A79"/>
					<stop  offset="0.115" style="stop-color:#3662A3"/>
					<stop  offset="0.3009" style="stop-color:#5BACD9"/>
					<stop  offset="1" style="stop-color:#BDE2F7"/>
				</linearGradient>
				<path style="fill:url(#SVGID_00000161591245358529590460000001675685527421989294_);" d="M331.76,283.06l-2.72-1.45l0,0
					l-5.99-3.19c-0.32,0.53-0.66,1.04-0.99,1.56l-2-0.47c-0.06,0-0.36-0.42-0.76-1.01l4.34-7.92l11.51,6.14
					c1.86,0.99,3.26,2.73,3.83,4.76c0.57,2.05,0.3,4.18-0.78,6.01c-1.03,1.75-2.13,3.46-3.27,5.16
					C338.98,284.2,331.76,283.06,331.76,283.06z"/>
				<g>
					<g>
						
							<linearGradient id="SVGID_00000181771832719733414570000009419145138795895697_" gradientUnits="userSpaceOnUse" x1="243.2426" y1="210.7125" x2="285.8459" y2="163.5033" gradientTransform="matrix(-1 0 0 1 549.0328 0)">
							<stop  offset="0" style="stop-color:#223A79"/>
							<stop  offset="0.115" style="stop-color:#3662A3"/>
							<stop  offset="0.3009" style="stop-color:#5BACD9"/>
							<stop  offset="0.7854" style="stop-color:#BDE2F7"/>
							<stop  offset="1" style="stop-color:#3662A3"/>
						</linearGradient>
						<path style="fill:url(#SVGID_00000181771832719733414570000009419145138795895697_);" d="M257.14,156.89l-0.02-0.02
							c0,0,0.07,0.01,0.19,0.03C257.26,156.9,257.2,156.89,257.14,156.89z"/>
						
							<linearGradient id="SVGID_00000094611701726278217210000018253848117135557282_" gradientUnits="userSpaceOnUse" x1="232.6194" y1="201.1107" x2="275.2162" y2="153.9088" gradientTransform="matrix(-1 0 0 1 549.0328 0)">
							<stop  offset="0" style="stop-color:#223A79"/>
							<stop  offset="0.115" style="stop-color:#3662A3"/>
							<stop  offset="0.3009" style="stop-color:#5BACD9"/>
							<stop  offset="0.7854" style="stop-color:#BDE2F7"/>
							<stop  offset="1" style="stop-color:#3662A3"/>
						</linearGradient>
						<path style="fill:url(#SVGID_00000094611701726278217210000018253848117135557282_);" d="M321.02,187.46
							c-1.55,0.84-4.71,1.77-9.27-0.73c-0.01-0.01-0.03-0.02-0.05-0.03c-12.68-16.25-31.68-27.38-53.24-29.69
							c2.48,0.13,7.86-0.26,11.25-5.34C291,156.71,309.23,169.76,321.02,187.46z"/>
					</g>
					
						<linearGradient id="SVGID_00000170998595308943784580000002950989905963987351_" gradientUnits="userSpaceOnUse" x1="225.5598" y1="248.6911" x2="225.5598" y2="193.9024" gradientTransform="matrix(-1 0 0 1 549.0328 0)">
						<stop  offset="0" style="stop-color:#223A79"/>
						<stop  offset="0.115" style="stop-color:#3662A3"/>
						<stop  offset="0.3009" style="stop-color:#5BACD9"/>
						<stop  offset="0.7854" style="stop-color:#BDE2F7"/>
						<stop  offset="1" style="stop-color:#3662A3"/>
					</linearGradient>
					<path style="fill:url(#SVGID_00000170998595308943784580000002950989905963987351_);" d="M321.2,187.75
						c8.87,13.43,14.04,29.51,14.04,46.77c0,5.28-0.5,10.52-1.46,15.65c-7.46-3.26-5.82-11.91-5.82-11.91l-0.04-0.01
						c0.08-1.26,0.13-2.51,0.14-3.73c0.1-18.01-6.04-34.6-16.35-47.82c0.02,0.01,0.03,0.01,0.05,0.02
						C315.31,189.06,318.71,188.69,321.2,187.75z"/>
					
						<linearGradient id="SVGID_00000031191432376139256880000011691554908604126396_" gradientUnits="userSpaceOnUse" x1="241.778" y1="286.6503" x2="219.1364" y2="251.5367" gradientTransform="matrix(-1 0 0 1 549.0328 0)">
						<stop  offset="0" style="stop-color:#223A79"/>
						<stop  offset="0.115" style="stop-color:#3662A3"/>
						<stop  offset="0.3009" style="stop-color:#5BACD9"/>
						<stop  offset="0.7854" style="stop-color:#BDE2F7"/>
						<stop  offset="1" style="stop-color:#3662A3"/>
					</linearGradient>
					<path style="fill:url(#SVGID_00000031191432376139256880000011691554908604126396_);" d="M327.92,238.28l0.05-0.01
						c0.13,6.7,3.25,10.59,5.68,12.61c-2.85,14.52-9.44,28.16-19.28,39.48c-1.3,1.5-3.58,1.66-5.07,0.36
						c-1.5-1.3-1.65-3.57-0.36-5.07C320.36,272.38,326.94,254.29,327.92,238.28z"/>
				</g>
				<g>
					
						<linearGradient id="SVGID_00000182524051219821747990000003062185845874391458_" gradientUnits="userSpaceOnUse" x1="224.4023" y1="290.4287" x2="234.1988" y2="281.8962" gradientTransform="matrix(-1 0 0 1 549.0328 0)">
						<stop  offset="0" style="stop-color:#223A79"/>
						<stop  offset="0.115" style="stop-color:#3662A3"/>
						<stop  offset="0.3009" style="stop-color:#5BACD9"/>
						<stop  offset="1" style="stop-color:#BDE2F7"/>
					</linearGradient>
					<path style="fill:url(#SVGID_00000182524051219821747990000003062185845874391458_);" d="M308.93,285.64
						c2.4-2.76,4.59-5.72,6.59-8.8c-0.02,0.04-0.02,0.07-0.04,0.11c-3.49,8.67,1.06,10.8,1.06,10.8l7.21,7.05
						c0.14,0.1,0.29,0.11,0.39,0.1c0.15-0.01,0.27-0.08,0.36-0.19c2.74-3.44,5.26-7.1,7.49-10.89c0.07-0.12,0.09-0.26,0.05-0.41
						c-0.03-0.11-0.1-0.26-0.28-0.35c0,0,7.22,1.14,3.15,9.57c-1.51,2.24-3.11,4.44-4.78,6.55c-1.32,1.66-3.21,2.68-5.33,2.88
						c-0.23,0.02-0.47,0.03-0.7,0.03c-1.86,0-3.69-0.68-5.11-1.9c-0.05-0.05-0.1-0.09-0.16-0.14l-9.7-9.48
						C307.77,289.24,307.69,287.08,308.93,285.64z"/>
				</g>
				
					<linearGradient id="SVGID_00000088118254868108642360000015683720813818737341_" gradientUnits="userSpaceOnUse" x1="211.8733" y1="284.9731" x2="230.0969" y2="300.7739" gradientTransform="matrix(-1 0 0 1 549.0328 0)">
					<stop  offset="0" style="stop-color:#223A79"/>
					<stop  offset="0.115" style="stop-color:#3662A3"/>
					<stop  offset="0.3009" style="stop-color:#5BACD9"/>
					<stop  offset="1" style="stop-color:#BDE2F7"/>
				</linearGradient>
				<path style="fill:url(#SVGID_00000088118254868108642360000015683720813818737341_);" d="M332.04,283.42
					c-0.03-0.11-0.1-0.26-0.28-0.35c0,0,7.22,1.14,3.15,9.57c-1.51,2.24-3.11,4.44-4.78,6.55c-1.32,1.66-3.21,2.68-5.33,2.88
					c-0.23,0.02-0.47,0.03-0.7,0.03c-1.86,0-3.69-0.68-5.11-1.9c-0.05-0.05-0.1-0.09-0.16-0.14l-4.05-3.96
					c4.81,3.42,9.72-1.38,9.72-1.38c2.74-3.44,5.26-7.1,7.49-10.89C332.07,283.7,332.08,283.56,332.04,283.42z"/>
				<g>
					
						<linearGradient id="SVGID_00000047022755512472399800000005312086385352284555_" gradientUnits="userSpaceOnUse" x1="202.1485" y1="245.6523" x2="218.6866" y2="238.5946" gradientTransform="matrix(-1 0 0 1 549.0328 0)">
						<stop  offset="0" style="stop-color:#223A79"/>
						<stop  offset="0.115" style="stop-color:#3662A3"/>
						<stop  offset="0.3009" style="stop-color:#5BACD9"/>
						<stop  offset="1" style="stop-color:#BDE2F7"/>
					</linearGradient>
					<path style="fill:url(#SVGID_00000047022755512472399800000005312086385352284555_);" d="M327.96,238.27
						c0.94,9.25,6.2,9.75,6.2,9.75l9.33,1.78c0.2,0.04,0.35-0.03,0.44-0.1c0.12-0.09,0.2-0.21,0.22-0.35
						c0.66-4.54,0.99-9.18,0.99-13.77c0-1.04-0.02-2.08-0.05-3.12h7.2c0.03,1.04,0.05,2.08,0.05,3.12c0,4.94-0.36,9.92-1.07,14.8
						c-0.31,2.1-1.43,3.94-3.16,5.18c-1.32,0.94-2.91,1.44-4.52,1.44c-0.48,0-0.97-0.05-1.44-0.14l-9.42-1.8
						C332.73,255.07,325.89,253.91,327.96,238.27z"/>
					
						<linearGradient id="SVGID_00000008845815119666808100000000298639444435554967_" gradientUnits="userSpaceOnUse" x1="203.5981" y1="211.499" x2="205.3889" y2="256.6894" gradientTransform="matrix(-1 0 0 1 549.0328 0)">
						<stop  offset="0" style="stop-color:#223A79"/>
						<stop  offset="0.115" style="stop-color:#3662A3"/>
						<stop  offset="0.3009" style="stop-color:#5BACD9"/>
						<stop  offset="1" style="stop-color:#BDE2F7"/>
					</linearGradient>
					<path style="fill:url(#SVGID_00000008845815119666808100000000298639444435554967_);" d="M343.94,249.7
						c0.12-0.09,0.2-0.21,0.22-0.35c0.66-4.54,0.99-9.18,0.99-13.77c0-1.04-0.02-2.08-0.05-3.12h7.2c0.03,1.04,0.05,2.08,0.05,3.12
						c0,4.94-0.36,9.92-1.07,14.8c-0.31,2.1-1.43,3.94-3.16,5.18c-1.32,0.94-2.91,1.44-4.52,1.44c-0.48,0-0.97-0.05-1.44-0.14
						l-6.41-1.22C343.08,256,343.94,249.7,343.94,249.7z"/>
				</g>
				
					<linearGradient id="SVGID_00000142885628875554377870000007135611116229802428_" gradientUnits="userSpaceOnUse" x1="225.922" y1="177.5288" x2="233.6117" y2="184.3758" gradientTransform="matrix(-1 0 0 1 549.0328 0)">
					<stop  offset="0" style="stop-color:#223A79"/>
					<stop  offset="0.115" style="stop-color:#3662A3"/>
					<stop  offset="0.3009" style="stop-color:#5BACD9"/>
					<stop  offset="1" style="stop-color:#BDE2F7"/>
				</linearGradient>
				<path style="fill:url(#SVGID_00000142885628875554377870000007135611116229802428_);" d="M311.75,186.73
					c6.72,8.57,11.88,5.52,11.88,5.52l7.67-4.98c1.77-1.15,3.01-3,3.4-5.07c0.4-2.09-0.06-4.2-1.3-5.92
					c-3.6-5.05-7.72-9.81-12.22-14.17l-4.67,5.49c4.06,3.97,7.78,8.29,11.04,12.86c0.08,0.12,0.11,0.25,0.08,0.4
					c-0.02,0.11-0.08,0.27-0.25,0.38l-7.33,4.76C320.04,185.99,317.27,187.78,311.75,186.73z"/>
				
					<linearGradient id="SVGID_00000146479233978281026600000016409826703727279006_" gradientUnits="userSpaceOnUse" x1="245.4234" y1="153.1152" x2="215.718" y2="183.9793" gradientTransform="matrix(-1 0 0 1 549.0328 0)">
					<stop  offset="0" style="stop-color:#223A79"/>
					<stop  offset="0.115" style="stop-color:#3662A3"/>
					<stop  offset="0.3009" style="stop-color:#5BACD9"/>
					<stop  offset="1" style="stop-color:#BDE2F7"/>
				</linearGradient>
				<path style="fill:url(#SVGID_00000146479233978281026600000016409826703727279006_);" d="M327.55,180.45
					c-3.26-4.57-6.98-8.89-11.04-12.86l4.67-5.49c4.51,4.36,8.62,9.12,12.22,14.17c1.23,1.73,1.69,3.83,1.3,5.92
					c-0.39,2.07-1.64,3.92-3.4,5.07l-2.35,1.53C331.09,183.6,327.55,180.45,327.55,180.45z"/>
				
					<linearGradient id="SVGID_00000078021362767537281210000004061151972102923425_" gradientUnits="userSpaceOnUse" x1="275.0049" y1="141.3466" x2="323.9901" y2="141.3466" gradientTransform="matrix(-1 0 0 1 549.0328 0)">
					<stop  offset="0" style="stop-color:#BDE2F7"/>
					<stop  offset="0.5" style="stop-color:#5BACD9"/>
					<stop  offset="1" style="stop-color:#BDE2F7"/>
				</linearGradient>
				<path style="fill:url(#SVGID_00000078021362767537281210000004061151972102923425_);" d="M274.27,138.5
					c1.15,1.77,1.53,3.96,1.05,6.02l-1.14,4.85l0,0c0.32-6.65-6.29-7.19-6.29-7.19c-0.06-0.09,0.19,0.04,0,0
					c-5.84-1.1-11.85-1.65-17.86-1.65l-0.01-7.19c6.46,0,12.92,0.59,19.2,1.77C271.28,135.49,273.12,136.73,274.27,138.5z"/>
				
					<linearGradient id="SVGID_00000130605379775880087950000014278524784500996760_" gradientUnits="userSpaceOnUse" x1="281.1116" y1="143.6582" x2="284.3771" y2="157.3522" gradientTransform="matrix(-1 0 0 1 549.0328 0)">
					<stop  offset="0" style="stop-color:#223A79"/>
					<stop  offset="0.115" style="stop-color:#3662A3"/>
					<stop  offset="0.3009" style="stop-color:#5BACD9"/>
					<stop  offset="1" style="stop-color:#BDE2F7"/>
				</linearGradient>
				<path style="fill:url(#SVGID_00000130605379775880087950000014278524784500996760_);" d="M257.12,156.87
					c8.77,0.3,9.29-5.92,9.29-5.92l0.37-1.59l6.82,2.42C273.6,151.78,273.17,159.65,257.12,156.87z"/>
			</g>
		</g>
	</g>
</g>
<g id="TEXTS">
	<text transform="matrix(1 0 0 1 156.6289 334.4305)" class="st53 st54 st55">Technical</text>
	<text transform="matrix(0.7 0 0 0.7 106.1572 353.9627)" class="st56 st57 st58">for</text>
	<text transform="matrix(1 0 0 1 134.2349 353.9627)" class="st56 st57 st58"> </text>
	<text transform="matrix(0.7 0 0 0.7 139.6392 353.9627)" class="st56 st57 st58">operating</text>
	<text transform="matrix(1 0 0 1 219.7729 353.9627)" class="st56 st57 st58"> </text>
	<text transform="matrix(0.7 0 0 0.7 225.1768 353.9627)" class="st56 st57 st58">and</text>
	<text transform="matrix(1 0 0 1 255.478 353.9627)" class="st56 st57 st58"> </text>
	<text transform="matrix(0.7 0 0 0.7 260.8823 353.9627)" class="st56 st57 st58">supplying</text>
	<text transform="matrix(1 0 0 1 335.8237 353.9627)" class="st56 st57 st58"> </text>
	<text transform="matrix(0.7 0 0 0.7 341.228 353.9627)" class="st56 st57 st58">metals</text>
</g>
</svg>
